<svg width="160" height="82" viewBox="0 0 160 82" fill="none" xmlns="http://www.w3.org/2000/svg">
<path d="M0 82H160V-1.18829e-06H0V82Z" fill="white"/>
<path d="M4 78H78.1456V3.85289H4V78Z" fill="#FF0000"/>
<path d="M19.6344 62.3893H31.3417V35.0743H19.6344V62.3893ZM25.4643 18.6829C21.7999 18.6829 18.83 21.6528 18.83 25.3172C18.83 28.9817 21.7999 31.9515 25.4643 31.9515C29.1288 31.9515 32.0987 28.9817 32.0987 25.3172C32.0987 21.6528 29.1288 18.6829 25.4643 18.6829ZM62.5364 19.4636H50.8306V31.1709H62.5364V19.4636ZM35.2214 62.3893H46.9302V19.4636H35.2214V62.3893ZM50.8321 46.7801H62.5379V35.0728H50.8321V46.7801Z" fill="white"/>
<path d="M82.0505 78H156.198V3.85289H82.0505V78Z" fill="#FF0000"/>
<path d="M94.969 19.5244C98.5444 19.5244 101.21 21.0264 101.21 25.151C101.21 29.0514 98.4687 30.6825 94.969 30.6825H92.0763V19.5244H94.969ZM94.212 28.9727H94.7715C97.121 28.9727 98.9985 27.9961 98.9985 25.1346C98.9985 22.1291 97.121 21.2831 94.7715 21.2831H94.212V28.9727Z" fill="white"/>
<path d="M103.211 19.5229H109.466V21.3767H105.315V24.063H109.134V25.8693H105.315V28.811H109.512V30.681H103.211V19.5229Z" fill="white"/>
<path d="M117.376 21.5533C116.542 21.2015 115.877 21.0739 115.224 21.0739C114.103 21.0739 113.392 21.5696 113.392 22.3369C113.392 23.0241 113.739 23.456 115.299 24.0467C117.269 24.7828 118.103 25.7417 118.103 27.3891C118.103 29.5308 116.556 30.874 114.118 30.874C113.104 30.874 112.194 30.7137 111.316 30.3946L111.512 28.4281C112.422 28.8911 113.254 29.0677 113.996 29.0677C115.118 29.0677 115.921 28.572 115.921 27.677C115.921 26.8296 115.482 26.3813 113.876 25.758C111.998 25.0382 111.196 24.1432 111.196 22.5611C111.196 20.5782 112.724 19.3314 114.982 19.3314C115.921 19.3314 116.709 19.4428 117.542 19.7307L117.376 21.5533Z" fill="white"/>
<path d="M120.012 30.6825H122.147V19.5244H120.012V30.6825Z" fill="white"/>
<path d="M132.92 21.8412C132.268 21.4895 131.208 21.2179 130.117 21.2179C127.875 21.2179 126.42 22.705 126.42 25.0708C126.42 27.3891 127.738 28.9386 130.071 28.9386C130.511 28.9386 130.98 28.8911 131.314 28.7798V25.9984H129.056V24.207H133.344V30.2031C132.207 30.6187 130.996 30.7939 129.784 30.7939C126.542 30.7939 124.133 28.6195 124.133 25.0545C124.133 21.586 126.466 19.4116 130.132 19.4116C131.177 19.4116 132.207 19.5229 133.071 19.8435L132.92 21.8412Z" fill="white"/>
<path d="M142.555 19.5229H144.479V30.681H141.783L139.072 25.2148C138.525 24.1105 137.829 22.5121 137.541 21.7774H137.51C137.556 22.4646 137.586 24.5113 137.586 25.4701V30.681H135.662V19.5229H138.509L141.176 25.0381C141.571 25.8381 142.298 27.5153 142.614 28.2989H142.646C142.6 27.4841 142.555 25.3261 142.555 24.207V19.5229Z" fill="white"/>
<path d="M101.666 46.5589H99.3472L98.4226 43.9838H94.0146L93.0899 46.5589H90.8948L95.046 35.4008H97.4534L101.666 46.5589ZM96.9681 39.6841C96.741 39.0133 96.3774 37.7339 96.2423 37.1595H96.2111C96.0598 37.7339 95.6665 39.0133 95.4394 39.6841L94.5607 42.2904H97.8467L96.9681 39.6841Z" fill="white"/>
<path d="M109.317 39.0934C109.21 38.5814 108.997 37.6063 108.922 36.9992H108.892C108.816 37.6063 108.65 38.565 108.545 39.0934L106.969 46.5604H104.272L101.348 35.4008H103.635L105.165 42.0826C105.241 42.4492 105.575 44.064 105.665 44.818H105.697C105.802 44.064 106.105 42.4492 106.18 42.0826L107.559 35.4008H110.391L111.846 42.0826C111.938 42.467 112.224 44.0803 112.331 44.818H112.361C112.467 44.0803 112.77 42.4981 112.861 42.0826L114.376 35.4008H116.497L113.664 46.5604H110.982L109.317 39.0934Z" fill="white"/>
<path d="M126.889 46.5589H124.571L123.648 43.9838H119.238L118.315 46.5589H116.119L120.27 35.4008H122.677L126.889 46.5589ZM122.193 39.6841C121.966 39.0133 121.603 37.7339 121.466 37.1595H121.435C121.284 37.7339 120.89 39.0133 120.663 39.6841L119.785 42.2904H123.072L122.193 39.6841Z" fill="white"/>
<path d="M128.314 35.4008H131.375C133.979 35.4008 135.707 35.9915 135.707 38.3261C135.707 39.7969 134.874 40.6771 133.495 40.965V40.9962C134.238 41.2039 134.511 41.6522 134.845 42.4833L136.48 46.5589H134.131L132.951 43.3946C132.511 42.2265 132.314 41.9238 131.011 41.9238H130.451V46.5589H128.314V35.4008ZM130.451 40.1962H131.072C132.753 40.1962 133.51 39.7494 133.51 38.6304C133.51 37.4148 132.602 37.1595 131.072 37.1595H130.451V40.1962Z" fill="white"/>
<path d="M141.207 35.4008C144.783 35.4008 147.448 36.9028 147.448 41.0273C147.448 44.9292 144.707 46.5589 141.207 46.5589H138.315V35.4008H141.207ZM140.45 44.8491H141.01C143.359 44.8491 145.237 43.8725 145.237 41.011C145.237 38.007 143.359 37.1595 141.01 37.1595H140.45V44.8491Z" fill="white"/>
<path d="M91.8803 51.8129C92.7545 51.4077 93.9255 51.1732 95.1262 51.1732C97.1403 51.1732 98.8575 52.1884 98.8575 54.3256C98.8575 55.7 98.2163 56.9319 96.2038 58.8213C95.2821 59.6791 94.6112 60.1793 94.0339 60.5696V60.6008C95.0179 60.5696 96.2973 60.5533 97.2649 60.5533H99.0905V62.2542H91.6621V60.4435C95.1574 57.6027 96.5629 56.12 96.5629 54.5602C96.5629 53.3743 95.7035 52.8904 94.6112 52.8904C93.8157 52.8904 92.9726 53.1234 92.0985 53.6236L91.8803 51.8129Z" fill="white"/>
<path d="M108.52 56.776C108.52 60.304 107.365 62.4412 104.555 62.4412C101.746 62.4412 100.544 60.3352 100.544 56.9007C100.544 53.0151 101.839 51.1732 104.632 51.1732C107.209 51.1732 108.52 53.0463 108.52 56.776ZM102.745 56.7137C102.745 59.461 103.384 60.8338 104.555 60.8338C105.695 60.8338 106.335 59.461 106.335 56.8236C106.335 54.1223 105.695 52.7806 104.539 52.7806C103.384 52.7806 102.745 54.1075 102.745 56.7137Z" fill="white"/>
<path d="M110.02 51.8129C110.894 51.4077 112.065 51.1732 113.266 51.1732C115.28 51.1732 116.997 52.1884 116.997 54.3256C116.997 55.7 116.356 56.9319 114.343 58.8213C113.422 59.6791 112.751 60.1793 112.174 60.5696V60.6008C113.158 60.5696 114.437 60.5533 115.405 60.5533H117.23V62.2542H109.802V60.4435C113.297 57.6027 114.703 56.12 114.703 54.5602C114.703 53.3743 113.843 52.8904 112.751 52.8904C111.955 52.8904 111.112 53.1234 110.238 53.6236L110.02 51.8129Z" fill="white"/>
<path d="M119.543 51.8129C120.417 51.4077 121.588 51.1732 122.789 51.1732C124.803 51.1732 126.52 52.1884 126.52 54.3256C126.52 55.7 125.879 56.9319 123.866 58.8213C122.944 59.6791 122.274 60.1793 121.696 60.5696V60.6008C122.68 60.5696 123.96 60.5533 124.927 60.5533H126.753V62.2542H119.324V60.4435C122.82 57.6027 124.225 56.12 124.225 54.5602C124.225 53.3743 123.366 52.8904 122.274 52.8904C121.478 52.8904 120.635 53.1234 119.761 53.6236L119.543 51.8129Z" fill="white"/>
</svg>
